<svg width="166" height="41" viewBox="0 0 166 41" fill="none" xmlns="http://www.w3.org/2000/svg">
<rect x="0.5" y="0.5" width="165" height="40" rx="3.5" stroke="#E6E6E6"/>
<path d="M18.352 23.964H21.768V25H17.078V15.242H18.352V23.964ZM22.645 21.136C22.645 20.352 22.8036 19.666 23.121 19.078C23.4383 18.4807 23.8723 18.0187 24.423 17.692C24.983 17.3653 25.6036 17.202 26.285 17.202C26.957 17.202 27.5403 17.3467 28.035 17.636C28.5296 17.9253 28.8983 18.2893 29.141 18.728V17.328H30.429V25H29.141V23.572C28.889 24.02 28.511 24.3933 28.007 24.692C27.5123 24.9813 26.9336 25.126 26.271 25.126C25.5896 25.126 24.9736 24.958 24.423 24.622C23.8723 24.286 23.4383 23.8147 23.121 23.208C22.8036 22.6013 22.645 21.9107 22.645 21.136ZM29.141 21.15C29.141 20.5713 29.0243 20.0673 28.791 19.638C28.5576 19.2087 28.2403 18.882 27.839 18.658C27.447 18.4247 27.013 18.308 26.537 18.308C26.061 18.308 25.627 18.42 25.235 18.644C24.843 18.868 24.5303 19.1947 24.297 19.624C24.0636 20.0533 23.947 20.5573 23.947 21.136C23.947 21.724 24.0636 22.2373 24.297 22.676C24.5303 23.1053 24.843 23.4367 25.235 23.67C25.627 23.894 26.061 24.006 26.537 24.006C27.013 24.006 27.447 23.894 27.839 23.67C28.2403 23.4367 28.5576 23.1053 28.791 22.676C29.0243 22.2373 29.141 21.7287 29.141 21.15ZM34.1359 18.378V22.9C34.1359 23.2733 34.2152 23.5393 34.3739 23.698C34.5326 23.8473 34.8079 23.922 35.1999 23.922H36.1379V25H34.9899C34.2806 25 33.7486 24.8367 33.3939 24.51C33.0392 24.1833 32.8619 23.6467 32.8619 22.9V18.378H31.8679V17.328H32.8619V15.396H34.1359V17.328H36.1379V18.378H34.1359ZM44.6815 20.87C44.6815 21.1127 44.6675 21.3693 44.6395 21.64H38.5075C38.5542 22.396 38.8108 22.9887 39.2775 23.418C39.7535 23.838 40.3275 24.048 40.9995 24.048C41.5502 24.048 42.0075 23.922 42.3715 23.67C42.7448 23.4087 43.0062 23.0633 43.1555 22.634H44.5275C44.3222 23.3713 43.9115 23.9733 43.2955 24.44C42.6795 24.8973 41.9142 25.126 40.9995 25.126C40.2715 25.126 39.6182 24.9627 39.0395 24.636C38.4702 24.3093 38.0222 23.8473 37.6955 23.25C37.3688 22.6433 37.2055 21.9433 37.2055 21.15C37.2055 20.3567 37.3642 19.6613 37.6815 19.064C37.9988 18.4667 38.4422 18.0093 39.0115 17.692C39.5902 17.3653 40.2528 17.202 40.9995 17.202C41.7275 17.202 42.3715 17.3607 42.9315 17.678C43.4915 17.9953 43.9208 18.434 44.2195 18.994C44.5275 19.5447 44.6815 20.17 44.6815 20.87ZM43.3655 20.604C43.3655 20.1187 43.2582 19.7033 43.0435 19.358C42.8288 19.0033 42.5348 18.7373 42.1615 18.56C41.7975 18.3733 41.3915 18.28 40.9435 18.28C40.2995 18.28 39.7488 18.4853 39.2915 18.896C38.8435 19.3067 38.5868 19.876 38.5215 20.604H43.3655ZM49.0792 25.126C48.4912 25.126 47.9638 25.028 47.4972 24.832C47.0305 24.6267 46.6618 24.3467 46.3912 23.992C46.1205 23.628 45.9712 23.2127 45.9432 22.746H47.2592C47.2965 23.1287 47.4738 23.4413 47.7912 23.684C48.1178 23.9267 48.5425 24.048 49.0652 24.048C49.5505 24.048 49.9332 23.9407 50.2132 23.726C50.4932 23.5113 50.6332 23.2407 50.6332 22.914C50.6332 22.578 50.4838 22.3307 50.1852 22.172C49.8865 22.004 49.4245 21.8407 48.7992 21.682C48.2298 21.5327 47.7632 21.3833 47.3992 21.234C47.0445 21.0753 46.7365 20.8467 46.4752 20.548C46.2232 20.24 46.0972 19.8387 46.0972 19.344C46.0972 18.952 46.2138 18.5927 46.4472 18.266C46.6805 17.9393 47.0118 17.6827 47.4412 17.496C47.8705 17.3 48.3605 17.202 48.9112 17.202C49.7605 17.202 50.4465 17.4167 50.9692 17.846C51.4918 18.2753 51.7718 18.8633 51.8092 19.61H50.5352C50.5072 19.2087 50.3438 18.8867 50.0452 18.644C49.7558 18.4013 49.3638 18.28 48.8692 18.28C48.4118 18.28 48.0478 18.378 47.7772 18.574C47.5065 18.77 47.3712 19.0267 47.3712 19.344C47.3712 19.596 47.4505 19.806 47.6092 19.974C47.7772 20.1327 47.9825 20.2633 48.2252 20.366C48.4772 20.4593 48.8225 20.5667 49.2612 20.688C49.8118 20.8373 50.2598 20.9867 50.6052 21.136C50.9505 21.276 51.2445 21.4907 51.4872 21.78C51.7392 22.0693 51.8698 22.4473 51.8792 22.914C51.8792 23.334 51.7625 23.712 51.5292 24.048C51.2958 24.384 50.9645 24.65 50.5352 24.846C50.1152 25.0327 49.6298 25.126 49.0792 25.126ZM55.2316 18.378V22.9C55.2316 23.2733 55.3109 23.5393 55.4696 23.698C55.6283 23.8473 55.9036 23.922 56.2956 23.922H57.2336V25H56.0856C55.3763 25 54.8443 24.8367 54.4896 24.51C54.1349 24.1833 53.9576 23.6467 53.9576 22.9V18.378H52.9636V17.328H53.9576V15.396H55.2316V17.328H57.2336V18.378H55.2316Z" fill="#4D4D4D"/>
<path d="M138.917 18.4585L143 22.5418L147.083 18.4585" stroke="#4D4D4D" stroke-width="1.5" stroke-linecap="round" stroke-linejoin="round"/>
</svg>
