<svg width="32" height="32" viewBox="0 0 32 32" fill="none" xmlns="http://www.w3.org/2000/svg">
<path d="M16.0024 28.0547C12.7224 28.0547 12.3358 28.0373 11.0558 27.9813C10.0576 27.9485 9.07235 27.7456 8.14244 27.3813C7.34668 27.0716 6.62401 26.5999 6.02033 25.996C5.41665 25.392 4.94515 24.6692 4.63577 23.8733C4.28552 22.94 4.0966 21.954 4.07711 20.9573C4.00244 19.68 4.00244 19.2613 4.00244 16.0067C4.00244 12.7173 4.01977 12.3333 4.07711 11.06C4.09702 10.0647 4.28594 9.08 4.63577 8.14799C4.9448 7.3511 5.41662 6.62742 6.0211 6.02317C6.62558 5.41892 7.34944 4.94737 8.14644 4.63865C9.07797 4.28692 10.0629 4.09751 11.0584 4.07865C12.3318 4.00665 12.7504 4.00665 16.0024 4.00665C19.3091 4.00665 19.6891 4.02399 20.9491 4.07865C21.9464 4.09732 22.9358 4.28665 23.8691 4.63865C24.6659 4.94773 25.3896 5.4194 25.994 6.02361C26.5984 6.62782 27.0704 7.35131 27.3798 8.14799C27.7358 9.09465 27.9264 10.0947 27.9411 11.104C28.0158 12.3813 28.0158 12.7987 28.0158 16.052C28.0158 19.3053 27.9971 19.732 27.9411 20.9947C27.9212 21.9922 27.7318 22.9792 27.3811 23.9133C27.0709 24.7097 26.5986 25.433 25.994 26.0371C25.3894 26.6413 24.6658 27.1131 23.8691 27.4227C22.9358 27.772 21.9504 27.9613 20.9544 27.9813C19.6811 28.0546 19.2638 28.0547 16.0024 28.0547ZM15.9571 6.11732C12.6958 6.11732 12.3571 6.13332 11.0838 6.19065C10.3233 6.2006 9.57018 6.34085 8.85711 6.60532C8.33702 6.80467 7.86447 7.1108 7.46993 7.50396C7.07539 7.89712 6.76761 8.36859 6.56644 8.88799C6.29977 9.60799 6.15977 10.3693 6.15177 11.1373C6.08111 12.4293 6.08111 12.768 6.08111 16.0067C6.08111 19.2067 6.09311 19.5947 6.15177 20.8787C6.16377 21.6387 6.30377 22.392 6.56644 23.1053C6.97444 24.1547 7.80644 24.984 8.85844 25.3867C9.57059 25.6528 10.3236 25.7931 11.0838 25.8013C12.3744 25.876 12.7144 25.876 15.9571 25.876C19.2278 25.876 19.5664 25.86 20.8291 25.8013C21.5896 25.7921 22.3429 25.6518 23.0558 25.3867C23.5731 25.1858 24.0429 24.8794 24.4355 24.4872C24.828 24.0949 25.1346 23.6252 25.3358 23.108C25.6024 22.388 25.7424 21.6253 25.7504 20.8573H25.7651C25.8224 19.5827 25.8224 19.2427 25.8224 15.9853C25.8224 12.728 25.8078 12.3853 25.7504 11.112C25.7384 10.3526 25.5982 9.60069 25.3358 8.88799C25.1351 8.37005 24.8287 7.89959 24.4361 7.50659C24.0436 7.11358 23.5735 6.80664 23.0558 6.60532C22.3424 6.33865 21.5891 6.19999 20.8291 6.19065C19.5398 6.11732 19.2024 6.11732 15.9571 6.11732ZM16.0024 22.1653C14.7832 22.1661 13.5911 21.8053 12.577 21.1285C11.5628 20.4518 10.7721 19.4894 10.3049 18.3633C9.83773 17.2371 9.71502 15.9977 9.9523 14.8017C10.1896 13.6058 10.7762 12.5071 11.6379 11.6446C12.4997 10.7821 13.5979 10.1945 14.7936 9.95622C15.9893 9.7179 17.2289 9.83955 18.3555 10.3058C19.482 10.772 20.445 11.5618 21.1227 12.5754C21.8003 13.589 22.1622 14.7807 22.1624 16C22.1603 17.6336 21.5108 19.1997 20.3562 20.3553C19.2016 21.5109 17.636 22.1618 16.0024 22.1653ZM16.0024 11.9973C15.2113 11.9973 14.438 12.2319 13.7802 12.6714C13.1224 13.111 12.6097 13.7357 12.3069 14.4666C12.0042 15.1975 11.925 16.0018 12.0793 16.7777C12.2336 17.5536 12.6146 18.2663 13.174 18.8257C13.7334 19.3852 14.4462 19.7661 15.2221 19.9205C15.998 20.0748 16.8023 19.9956 17.5332 19.6928C18.2641 19.3901 18.8888 18.8774 19.3283 18.2196C19.7678 17.5618 20.0024 16.7884 20.0024 15.9973C20 14.9372 19.5778 13.9212 18.8281 13.1716C18.0785 12.422 17.0626 11.9998 16.0024 11.9973ZM22.4024 11.0467C22.2137 11.046 22.0269 11.0081 21.8528 10.9352C21.6787 10.8623 21.5206 10.7559 21.3877 10.6219C21.1191 10.3513 20.969 9.98519 20.9704 9.60399C20.9719 9.22278 21.1246 8.85775 21.3952 8.5892C21.6658 8.32065 22.0319 8.17057 22.4131 8.17199C22.7943 8.1734 23.1593 8.32619 23.4279 8.59674C23.6964 8.86729 23.8465 9.23345 23.8451 9.61465C23.8437 9.99586 23.6909 10.3609 23.4204 10.6294C23.1498 10.898 22.7836 11.0481 22.4024 11.0467Z" fill="white"/>
</svg>
