<svg width="32" height="33" viewBox="0 0 32 33" fill="none" xmlns="http://www.w3.org/2000/svg">
<g clip-path="url(#clip0_1_2561)">
<path d="M31.9762 1.37145C31.913 1.17882 31.7371 1.04564 31.5346 1.0372C30.515 0.994761 27.7282 1.00207 23.8825 1.98545C20.3028 2.90089 16.9436 4.40557 14.1678 6.33695C13.9475 6.49026 13.8933 6.79307 14.0465 7.01339C14.1997 7.2337 14.5025 7.28801 14.7229 7.13476C17.4042 5.26895 20.6549 3.81401 24.1232 2.92707C25.4192 2.5957 26.759 2.34414 28.0293 2.18651C27.5085 2.41145 26.9503 2.67464 26.3693 2.98314C22.4404 5.06882 20.2453 7.73576 19.0323 9.87945C18.8729 9.1642 18.8292 8.34214 18.8289 7.97576C18.8288 7.70745 18.6113 7.49001 18.343 7.49001C18.0746 7.49001 17.857 7.70757 17.857 7.97595C17.857 8.19101 17.8742 9.98326 18.417 11.088C17.6689 12.6854 16.9692 14.2823 16.2921 15.8289C16.0045 16.4858 15.7214 17.1323 15.4407 17.7651C15.0029 16.9408 14.4259 15.4481 14.5842 13.4959C14.6058 13.2284 14.4066 12.9939 14.139 12.9723C13.8723 12.951 13.6371 13.1498 13.6154 13.4174C13.388 16.2221 14.5033 18.1804 14.9558 18.8482C14.1077 20.7225 13.2713 22.4486 12.3905 23.9219C11.937 22.8953 11.2266 20.9389 11.2266 18.7606C11.2266 18.4923 11.009 18.2747 10.7407 18.2747C10.4723 18.2747 10.2547 18.4923 10.2547 18.7606C10.2547 21.6501 11.3723 24.1071 11.7745 24.8977C10.8122 26.3355 9.78466 27.4598 8.62397 28.144C5.0881 24.3039 4.74322 17.099 10.9204 10.4276C11.6226 9.66926 12.3932 8.94532 13.211 8.27601C13.4187 8.10601 13.4492 7.79989 13.2792 7.5922C13.1092 7.38451 12.803 7.35401 12.5954 7.52395C11.7432 8.22157 10.9397 8.97639 10.2073 9.76732C3.69135 16.8046 4.05847 24.4748 7.79466 28.6767C4.54104 30.8663 0.515287 31.0031 0.473161 31.0043C0.205036 31.0115 -0.00652601 31.2346 0.000473991 31.5028C0.00741149 31.7668 0.223536 31.976 0.486036 31.976C0.490349 31.976 0.494724 31.9759 0.499036 31.9759C0.685537 31.9709 4.97985 31.8303 8.49754 29.3734C9.56341 30.2431 11.2353 30.7722 13.2624 30.7722C15.5573 30.7722 18.3075 30.0939 21.1483 28.464C23.7801 26.954 25.6669 24.6441 26.7564 21.5984C27.6894 18.9903 28.004 15.8523 27.6663 12.5236C27.0642 6.58957 29.3059 3.91189 31.818 1.90226C31.9762 1.77557 32.0392 1.56407 31.9762 1.37145ZM27.6835 5.34657C26.7276 7.34751 26.4057 9.72726 26.6993 12.6216C27.0225 15.8073 26.7258 18.7983 25.8412 21.2709C24.8318 24.0929 23.0901 26.2293 20.6646 27.621C17.6038 29.3772 15.0347 29.7751 13.4183 29.7998C11.7658 29.8256 10.3368 29.4728 9.37797 28.8197C10.176 28.302 10.9087 27.6077 11.5972 26.7696C11.6351 26.7699 11.676 26.7701 11.7217 26.7701C12.1989 26.7701 13.088 26.7496 14.137 26.627C16.2357 26.3818 17.8901 25.8639 19.0544 25.0877C19.2777 24.9389 19.338 24.6371 19.1892 24.4139C19.0403 24.1906 18.7386 24.1303 18.5153 24.2791C16.7217 25.4749 13.8327 25.7346 12.3415 25.7858C13.2868 24.4376 14.1575 22.8188 15.0162 21.0257C15.8612 21.0236 18.1043 20.8408 20.237 19.1406C20.4468 18.9733 20.4813 18.6676 20.314 18.4578C20.1467 18.2479 19.841 18.2134 19.6312 18.3807C18.0649 19.6294 16.4073 19.9521 15.4844 20.0294C16.0447 18.8169 16.6048 17.5376 17.1823 16.2187C17.4803 15.5379 17.783 14.8471 18.0918 14.1514C18.1251 14.1522 18.1603 14.1528 18.1973 14.1528C18.9298 14.1528 20.3885 13.9741 21.9915 12.7864C22.2071 12.6266 22.2524 12.3223 22.0926 12.1066C21.9328 11.891 21.6285 11.8458 21.4128 12.0055C20.4238 12.7383 19.5136 13.0135 18.9241 13.1154C18.7812 13.1402 18.6504 13.1559 18.5322 13.1659C18.8154 12.5374 19.1045 11.9068 19.4013 11.2771C21.2117 7.43551 24.4233 5.12082 26.7988 3.85551C27.8286 3.30701 28.7951 2.90239 29.5882 2.61326C28.8914 3.34751 28.2114 4.24157 27.6835 5.34657Z" fill="#00B307"/>
</g>
<defs>
<clipPath id="clip0_1_2561">
<rect width="32" height="32" fill="white" transform="translate(0 0.5)"/>
</clipPath>
</defs>
</svg>
