<svg width="115" height="21" viewBox="0 0 115 21" fill="none" xmlns="http://www.w3.org/2000/svg">
<path d="M9.30984 14.9111L12.8564 17.1577C13.3098 17.4446 13.8723 17.0177 13.7378 16.4884L12.7135 12.4581C12.6846 12.3458 12.6879 12.2276 12.7232 12.1172C12.7584 12.0067 12.8241 11.9085 12.9127 11.8337L16.093 9.18712C16.5104 8.83949 16.2955 8.14593 15.7583 8.11105L11.6054 7.84105C11.4936 7.83312 11.3863 7.79359 11.2961 7.72707C11.2059 7.66055 11.1364 7.56977 11.0958 7.4653L9.54665 3.56493C9.50447 3.45408 9.42959 3.35867 9.33195 3.29136C9.2343 3.22404 9.1185 3.18799 8.9999 3.18799C8.8813 3.18799 8.7655 3.22404 8.66786 3.29136C8.57021 3.35867 8.49533 3.45408 8.45315 3.56493L6.90403 7.4653C6.86348 7.56988 6.79404 7.66077 6.70381 7.7274C6.61359 7.79402 6.50628 7.83364 6.3944 7.84162L2.24147 8.11161C1.70484 8.14593 1.48884 8.83949 1.90678 9.18712L5.08715 11.8342C5.17564 11.909 5.24126 12.0072 5.27648 12.1175C5.3117 12.2278 5.3151 12.3459 5.28628 12.4581L4.33678 16.1959C4.17534 16.8309 4.8509 17.3434 5.39428 16.9986L8.69053 14.9111C8.78317 14.8522 8.89068 14.8209 9.00046 14.8209C9.11025 14.8209 9.21776 14.8522 9.3104 14.9111H9.30984Z" fill="#FF8A00"/>
<path d="M27.3098 14.9111L30.8564 17.1577C31.3098 17.4446 31.8723 17.0177 31.7378 16.4884L30.7135 12.4581C30.6846 12.3458 30.6879 12.2276 30.7232 12.1172C30.7584 12.0067 30.8241 11.9085 30.9127 11.8337L34.093 9.18711C34.5104 8.83949 34.2955 8.14593 33.7583 8.11105L29.6054 7.84105C29.4936 7.83312 29.3863 7.79359 29.2961 7.72707C29.2059 7.66055 29.1364 7.56977 29.0958 7.4653L27.5467 3.56493C27.5045 3.45408 27.4296 3.35867 27.3319 3.29136C27.2343 3.22404 27.1185 3.18799 26.9999 3.18799C26.8813 3.18799 26.7655 3.22404 26.6679 3.29136C26.5702 3.35867 26.4953 3.45408 26.4532 3.56493L24.904 7.4653C24.8635 7.56988 24.794 7.66077 24.7038 7.7274C24.6136 7.79402 24.5063 7.83364 24.3944 7.84161L20.2415 8.11161C19.7048 8.14593 19.4888 8.83949 19.9068 9.18711L23.0872 11.8342C23.1756 11.909 23.2413 12.0072 23.2765 12.1175C23.3117 12.2278 23.3151 12.3459 23.2863 12.4581L22.3368 16.1959C22.1753 16.8309 22.8509 17.3434 23.3943 16.9986L26.6905 14.9111C26.7832 14.8522 26.8907 14.8209 27.0005 14.8209C27.1102 14.8209 27.2178 14.8522 27.3104 14.9111H27.3098Z" fill="#FF8A00"/>
<path d="M45.3098 14.9111L48.8564 17.1577C49.3098 17.4446 49.8723 17.0177 49.7378 16.4884L48.7135 12.4581C48.6846 12.3458 48.6879 12.2276 48.7232 12.1172C48.7584 12.0067 48.8241 11.9085 48.9127 11.8337L52.093 9.18711C52.5104 8.83949 52.2955 8.14593 51.7583 8.11105L47.6054 7.84105C47.4936 7.83312 47.3863 7.79359 47.2961 7.72707C47.2059 7.66055 47.1364 7.56977 47.0958 7.4653L45.5467 3.56493C45.5045 3.45408 45.4296 3.35867 45.3319 3.29136C45.2343 3.22404 45.1185 3.18799 44.9999 3.18799C44.8813 3.18799 44.7655 3.22404 44.6679 3.29136C44.5702 3.35867 44.4953 3.45408 44.4532 3.56493L42.904 7.4653C42.8635 7.56988 42.794 7.66077 42.7038 7.7274C42.6136 7.79402 42.5063 7.83364 42.3944 7.84161L38.2415 8.11161C37.7048 8.14593 37.4888 8.83949 37.9068 9.18711L41.0872 11.8342C41.1756 11.909 41.2413 12.0072 41.2765 12.1175C41.3117 12.2278 41.3151 12.3459 41.2863 12.4581L40.3368 16.1959C40.1753 16.8309 40.8509 17.3434 41.3943 16.9986L44.6905 14.9111C44.7832 14.8522 44.8907 14.8209 45.0005 14.8209C45.1102 14.8209 45.2178 14.8522 45.3104 14.9111H45.3098Z" fill="#FF8A00"/>
<path d="M63.3098 14.9111L66.8564 17.1577C67.3098 17.4446 67.8723 17.0177 67.7378 16.4884L66.7135 12.4581C66.6846 12.3458 66.6879 12.2276 66.7232 12.1172C66.7584 12.0067 66.8241 11.9085 66.9127 11.8337L70.093 9.18711C70.5104 8.83949 70.2955 8.14593 69.7583 8.11105L65.6054 7.84105C65.4936 7.83312 65.3863 7.79359 65.2961 7.72707C65.2059 7.66055 65.1364 7.56977 65.0958 7.4653L63.5467 3.56493C63.5045 3.45408 63.4296 3.35867 63.3319 3.29136C63.2343 3.22404 63.1185 3.18799 62.9999 3.18799C62.8813 3.18799 62.7655 3.22404 62.6679 3.29136C62.5702 3.35867 62.4953 3.45408 62.4532 3.56493L60.904 7.4653C60.8635 7.56988 60.794 7.66077 60.7038 7.7274C60.6136 7.79402 60.5063 7.83364 60.3944 7.84161L56.2415 8.11161C55.7048 8.14593 55.4888 8.83949 55.9068 9.18711L59.0872 11.8342C59.1756 11.909 59.2413 12.0072 59.2765 12.1175C59.3117 12.2278 59.3151 12.3459 59.2863 12.4581L58.3368 16.1959C58.1753 16.8309 58.8509 17.3434 59.3943 16.9986L62.6905 14.9111C62.7832 14.8522 62.8907 14.8209 63.0005 14.8209C63.1102 14.8209 63.2178 14.8522 63.3104 14.9111H63.3098Z" fill="#FF8A00"/>
<path d="M81.3098 14.9111L84.8564 17.1577C85.3098 17.4446 85.8723 17.0177 85.7378 16.4884L84.7135 12.4581C84.6846 12.3458 84.6879 12.2276 84.7232 12.1172C84.7584 12.0067 84.8241 11.9085 84.9127 11.8337L88.093 9.18711C88.5104 8.83949 88.2955 8.14593 87.7583 8.11105L83.6054 7.84105C83.4936 7.83312 83.3863 7.79359 83.2961 7.72707C83.2059 7.66055 83.1364 7.56977 83.0958 7.4653L81.5467 3.56493C81.5045 3.45408 81.4296 3.35867 81.3319 3.29136C81.2343 3.22404 81.1185 3.18799 80.9999 3.18799C80.8813 3.18799 80.7655 3.22404 80.6679 3.29136C80.5702 3.35867 80.4953 3.45408 80.4532 3.56493L78.904 7.4653C78.8635 7.56988 78.794 7.66077 78.7038 7.7274C78.6136 7.79402 78.5063 7.83364 78.3944 7.84161L74.2415 8.11161C73.7048 8.14593 73.4888 8.83949 73.9068 9.18711L77.0872 11.8342C77.1756 11.909 77.2413 12.0072 77.2765 12.1175C77.3117 12.2278 77.3151 12.3459 77.2863 12.4581L76.3368 16.1959C76.1753 16.8309 76.8509 17.3434 77.3943 16.9986L80.6905 14.9111C80.7832 14.8522 80.8907 14.8209 81.0005 14.8209C81.1102 14.8209 81.2178 14.8522 81.3104 14.9111H81.3098Z" fill="#FF8A00"/>
<path d="M101.054 5.984H96.1404V9.176C96.3551 8.87733 96.6724 8.63467 97.0924 8.448C97.5124 8.252 97.9651 8.154 98.4504 8.154C99.2251 8.154 99.8551 8.31733 100.34 8.644C100.826 8.96133 101.171 9.37667 101.376 9.89C101.591 10.394 101.698 10.9307 101.698 11.5C101.698 12.172 101.572 12.774 101.32 13.306C101.068 13.838 100.681 14.258 100.158 14.566C99.6451 14.874 99.0058 15.028 98.2404 15.028C97.2604 15.028 96.4671 14.776 95.8604 14.272C95.2538 13.768 94.8851 13.096 94.7544 12.256H96.0004C96.1218 12.788 96.3784 13.2033 96.7704 13.502C97.1624 13.8007 97.6571 13.95 98.2544 13.95C98.9918 13.95 99.5471 13.7307 99.9204 13.292C100.294 12.844 100.48 12.256 100.48 11.528C100.48 10.8 100.294 10.24 99.9204 9.848C99.5471 9.44667 98.9964 9.246 98.2684 9.246C97.7738 9.246 97.3398 9.36733 96.9664 9.61C96.6024 9.84333 96.3364 10.1653 96.1684 10.576H94.9644V4.864H101.054V5.984ZM104.007 15.084C103.765 15.084 103.559 15 103.391 14.832C103.223 14.664 103.139 14.4587 103.139 14.216C103.139 13.9733 103.223 13.768 103.391 13.6C103.559 13.432 103.765 13.348 104.007 13.348C104.241 13.348 104.437 13.432 104.595 13.6C104.763 13.768 104.847 13.9733 104.847 14.216C104.847 14.4587 104.763 14.664 104.595 14.832C104.437 15 104.241 15.084 104.007 15.084ZM106.331 9.834C106.331 8.22867 106.592 6.978 107.115 6.082C107.638 5.17667 108.552 4.724 109.859 4.724C111.156 4.724 112.066 5.17667 112.589 6.082C113.112 6.978 113.373 8.22867 113.373 9.834C113.373 11.4673 113.112 12.7367 112.589 13.642C112.066 14.5473 111.156 15 109.859 15C108.552 15 107.638 14.5473 107.115 13.642C106.592 12.7367 106.331 11.4673 106.331 9.834ZM112.113 9.834C112.113 9.022 112.057 8.336 111.945 7.776C111.842 7.20667 111.623 6.74933 111.287 6.404C110.96 6.05867 110.484 5.886 109.859 5.886C109.224 5.886 108.739 6.05867 108.403 6.404C108.076 6.74933 107.857 7.20667 107.745 7.776C107.642 8.336 107.591 9.022 107.591 9.834C107.591 10.674 107.642 11.3787 107.745 11.948C107.857 12.5173 108.076 12.9747 108.403 13.32C108.739 13.6653 109.224 13.838 109.859 13.838C110.484 13.838 110.96 13.6653 111.287 13.32C111.623 12.9747 111.842 12.5173 111.945 11.948C112.057 11.3787 112.113 10.674 112.113 9.834Z" fill="#1A1A1A"/>
</svg>
