<svg width="150" height="21" viewBox="0 0 150 21" fill="none" xmlns="http://www.w3.org/2000/svg">
<path d="M9.30984 14.9111L12.8564 17.1577C13.3098 17.4446 13.8723 17.0177 13.7378 16.4884L12.7135 12.4581C12.6846 12.3458 12.6879 12.2276 12.7232 12.1172C12.7584 12.0067 12.8241 11.9085 12.9127 11.8337L16.093 9.18712C16.5104 8.83949 16.2955 8.14593 15.7583 8.11105L11.6054 7.84105C11.4936 7.83312 11.3863 7.79359 11.2961 7.72707C11.2059 7.66055 11.1364 7.56977 11.0958 7.4653L9.54665 3.56493C9.50447 3.45408 9.42959 3.35867 9.33195 3.29136C9.2343 3.22404 9.1185 3.18799 8.9999 3.18799C8.8813 3.18799 8.7655 3.22404 8.66786 3.29136C8.57021 3.35867 8.49533 3.45408 8.45315 3.56493L6.90403 7.4653C6.86348 7.56988 6.79404 7.66077 6.70381 7.7274C6.61359 7.79402 6.50628 7.83364 6.3944 7.84162L2.24147 8.11161C1.70484 8.14593 1.48884 8.83949 1.90678 9.18712L5.08715 11.8342C5.17564 11.909 5.24126 12.0072 5.27648 12.1175C5.3117 12.2278 5.3151 12.3459 5.28628 12.4581L4.33678 16.1959C4.17534 16.8309 4.8509 17.3434 5.39428 16.9986L8.69053 14.9111C8.78317 14.8522 8.89068 14.8209 9.00046 14.8209C9.11025 14.8209 9.21776 14.8522 9.3104 14.9111H9.30984Z" fill="#FF8A00"/>
<path d="M27.3098 14.9111L30.8564 17.1577C31.3098 17.4446 31.8723 17.0177 31.7378 16.4884L30.7135 12.4581C30.6846 12.3458 30.6879 12.2276 30.7232 12.1172C30.7584 12.0067 30.8241 11.9085 30.9127 11.8337L34.093 9.18711C34.5104 8.83949 34.2955 8.14593 33.7583 8.11105L29.6054 7.84105C29.4936 7.83312 29.3863 7.79359 29.2961 7.72707C29.2059 7.66055 29.1364 7.56977 29.0958 7.4653L27.5467 3.56493C27.5045 3.45408 27.4296 3.35867 27.3319 3.29136C27.2343 3.22404 27.1185 3.18799 26.9999 3.18799C26.8813 3.18799 26.7655 3.22404 26.6679 3.29136C26.5702 3.35867 26.4953 3.45408 26.4532 3.56493L24.904 7.4653C24.8635 7.56988 24.794 7.66077 24.7038 7.7274C24.6136 7.79402 24.5063 7.83364 24.3944 7.84161L20.2415 8.11161C19.7048 8.14593 19.4888 8.83949 19.9068 9.18711L23.0872 11.8342C23.1756 11.909 23.2413 12.0072 23.2765 12.1175C23.3117 12.2278 23.3151 12.3459 23.2863 12.4581L22.3368 16.1959C22.1753 16.8309 22.8509 17.3434 23.3943 16.9986L26.6905 14.9111C26.7832 14.8522 26.8907 14.8209 27.0005 14.8209C27.1102 14.8209 27.2178 14.8522 27.3104 14.9111H27.3098Z" fill="#FF8A00"/>
<path d="M45.3098 14.9111L48.8564 17.1577C49.3098 17.4446 49.8723 17.0177 49.7378 16.4884L48.7135 12.4581C48.6846 12.3458 48.6879 12.2276 48.7232 12.1172C48.7584 12.0067 48.8241 11.9085 48.9127 11.8337L52.093 9.18711C52.5104 8.83949 52.2955 8.14593 51.7583 8.11105L47.6054 7.84105C47.4936 7.83312 47.3863 7.79359 47.2961 7.72707C47.2059 7.66055 47.1364 7.56977 47.0958 7.4653L45.5467 3.56493C45.5045 3.45408 45.4296 3.35867 45.3319 3.29136C45.2343 3.22404 45.1185 3.18799 44.9999 3.18799C44.8813 3.18799 44.7655 3.22404 44.6679 3.29136C44.5702 3.35867 44.4953 3.45408 44.4532 3.56493L42.904 7.4653C42.8635 7.56988 42.794 7.66077 42.7038 7.7274C42.6136 7.79402 42.5063 7.83364 42.3944 7.84161L38.2415 8.11161C37.7048 8.14593 37.4888 8.83949 37.9068 9.18711L41.0872 11.8342C41.1756 11.909 41.2413 12.0072 41.2765 12.1175C41.3117 12.2278 41.3151 12.3459 41.2863 12.4581L40.3368 16.1959C40.1753 16.8309 40.8509 17.3434 41.3943 16.9986L44.6905 14.9111C44.7832 14.8522 44.8907 14.8209 45.0005 14.8209C45.1102 14.8209 45.2178 14.8522 45.3104 14.9111H45.3098Z" fill="#CCCCCC"/>
<path d="M63.3098 14.9111L66.8564 17.1577C67.3098 17.4446 67.8723 17.0177 67.7378 16.4884L66.7135 12.4581C66.6846 12.3458 66.6879 12.2276 66.7232 12.1172C66.7584 12.0067 66.8241 11.9085 66.9127 11.8337L70.093 9.18711C70.5104 8.83949 70.2955 8.14593 69.7583 8.11105L65.6054 7.84105C65.4936 7.83312 65.3863 7.79359 65.2961 7.72707C65.2059 7.66055 65.1364 7.56977 65.0958 7.4653L63.5467 3.56493C63.5045 3.45408 63.4296 3.35867 63.3319 3.29136C63.2343 3.22404 63.1185 3.18799 62.9999 3.18799C62.8813 3.18799 62.7655 3.22404 62.6679 3.29136C62.5702 3.35867 62.4953 3.45408 62.4532 3.56493L60.904 7.4653C60.8635 7.56988 60.794 7.66077 60.7038 7.7274C60.6136 7.79402 60.5063 7.83364 60.3944 7.84161L56.2415 8.11161C55.7048 8.14593 55.4888 8.83949 55.9068 9.18711L59.0872 11.8342C59.1756 11.909 59.2413 12.0072 59.2765 12.1175C59.3117 12.2278 59.3151 12.3459 59.2863 12.4581L58.3368 16.1959C58.1753 16.8309 58.8509 17.3434 59.3943 16.9986L62.6905 14.9111C62.7832 14.8522 62.8907 14.8209 63.0005 14.8209C63.1102 14.8209 63.2178 14.8522 63.3104 14.9111H63.3098Z" fill="#CCCCCC"/>
<path d="M81.3098 14.9111L84.8564 17.1577C85.3098 17.4446 85.8723 17.0177 85.7378 16.4884L84.7135 12.4581C84.6846 12.3458 84.6879 12.2276 84.7232 12.1172C84.7584 12.0067 84.8241 11.9085 84.9127 11.8337L88.093 9.18711C88.5104 8.83949 88.2955 8.14593 87.7583 8.11105L83.6054 7.84105C83.4936 7.83312 83.3863 7.79359 83.2961 7.72707C83.2059 7.66055 83.1364 7.56977 83.0958 7.4653L81.5467 3.56493C81.5045 3.45408 81.4296 3.35867 81.3319 3.29136C81.2343 3.22404 81.1185 3.18799 80.9999 3.18799C80.8813 3.18799 80.7655 3.22404 80.6679 3.29136C80.5702 3.35867 80.4953 3.45408 80.4532 3.56493L78.904 7.4653C78.8635 7.56988 78.794 7.66077 78.7038 7.7274C78.6136 7.79402 78.5063 7.83364 78.3944 7.84161L74.2415 8.11161C73.7048 8.14593 73.4888 8.83949 73.9068 9.18711L77.0872 11.8342C77.1756 11.909 77.2413 12.0072 77.2765 12.1175C77.3117 12.2278 77.3151 12.3459 77.2863 12.4581L76.3368 16.1959C76.1753 16.8309 76.8509 17.3434 77.3943 16.9986L80.6905 14.9111C80.7832 14.8522 80.8907 14.8209 81.0005 14.8209C81.1102 14.8209 81.2178 14.8522 81.3104 14.9111H81.3098Z" fill="#CCCCCC"/>
<path d="M94.4464 13.978C95.6318 13.026 96.5604 12.2467 97.2324 11.64C97.9044 11.024 98.4691 10.3847 98.9264 9.722C99.3931 9.05 99.6264 8.392 99.6264 7.748C99.6264 7.14133 99.4771 6.66533 99.1784 6.32C98.8891 5.96533 98.4178 5.788 97.7644 5.788C97.1298 5.788 96.6351 5.98867 96.2804 6.39C95.9351 6.782 95.7484 7.30933 95.7204 7.972H94.4884C94.5258 6.92667 94.8431 6.11933 95.4404 5.55C96.0378 4.98067 96.8078 4.696 97.7504 4.696C98.7118 4.696 99.4724 4.962 100.032 5.494C100.602 6.026 100.886 6.75867 100.886 7.692C100.886 8.46667 100.653 9.22267 100.186 9.96C99.7291 10.688 99.2064 11.332 98.6184 11.892C98.0304 12.4427 97.2791 13.0867 96.3644 13.824H101.18V14.888H94.4464V13.978ZM103.269 15.084C103.026 15.084 102.821 15 102.653 14.832C102.485 14.664 102.401 14.4587 102.401 14.216C102.401 13.9733 102.485 13.768 102.653 13.6C102.821 13.432 103.026 13.348 103.269 13.348C103.502 13.348 103.698 13.432 103.857 13.6C104.025 13.768 104.109 13.9733 104.109 14.216C104.109 14.4587 104.025 14.664 103.857 14.832C103.698 15 103.502 15.084 103.269 15.084ZM105.593 9.834C105.593 8.22867 105.854 6.978 106.377 6.082C106.899 5.17667 107.814 4.724 109.121 4.724C110.418 4.724 111.328 5.17667 111.851 6.082C112.373 6.978 112.635 8.22867 112.635 9.834C112.635 11.4673 112.373 12.7367 111.851 13.642C111.328 14.5473 110.418 15 109.121 15C107.814 15 106.899 14.5473 106.377 13.642C105.854 12.7367 105.593 11.4673 105.593 9.834ZM111.375 9.834C111.375 9.022 111.319 8.336 111.207 7.776C111.104 7.20667 110.885 6.74933 110.549 6.404C110.222 6.05867 109.746 5.886 109.121 5.886C108.486 5.886 108.001 6.05867 107.665 6.404C107.338 6.74933 107.119 7.20667 107.007 7.776C106.904 8.336 106.853 9.022 106.853 9.834C106.853 10.674 106.904 11.3787 107.007 11.948C107.119 12.5173 107.338 12.9747 107.665 13.32C108.001 13.6653 108.486 13.838 109.121 13.838C109.746 13.838 110.222 13.6653 110.549 13.32C110.885 12.9747 111.104 12.5173 111.207 11.948C111.319 11.3787 111.375 10.674 111.375 9.834ZM125.816 15L124.542 13.712C124.066 14.2067 123.557 14.5753 123.016 14.818C122.475 15.0513 121.863 15.168 121.182 15.168C120.51 15.168 119.913 15.0467 119.39 14.804C118.877 14.5613 118.475 14.216 118.186 13.768C117.906 13.32 117.766 12.7973 117.766 12.2C117.766 11.5187 117.957 10.9213 118.34 10.408C118.732 9.88533 119.306 9.47467 120.062 9.176C119.763 8.82133 119.549 8.49467 119.418 8.196C119.287 7.89733 119.222 7.57067 119.222 7.216C119.222 6.80533 119.325 6.43667 119.53 6.11C119.745 5.774 120.048 5.51267 120.44 5.326C120.832 5.13933 121.285 5.046 121.798 5.046C122.302 5.046 122.741 5.144 123.114 5.34C123.487 5.536 123.767 5.81133 123.954 6.166C124.141 6.51133 124.225 6.89867 124.206 7.328H122.932C122.941 6.94533 122.834 6.64667 122.61 6.432C122.386 6.208 122.097 6.096 121.742 6.096C121.369 6.096 121.065 6.20333 120.832 6.418C120.608 6.62333 120.496 6.88933 120.496 7.216C120.496 7.496 120.571 7.76667 120.72 8.028C120.879 8.28933 121.14 8.61133 121.504 8.994L124.416 11.92L124.668 11.528L125.62 9.932H126.992L125.844 11.92C125.685 12.2 125.499 12.494 125.284 12.802L127.482 15H125.816ZM121.182 14.076C121.686 14.076 122.139 13.978 122.54 13.782C122.951 13.586 123.338 13.2827 123.702 12.872L120.832 9.988C119.637 10.4453 119.04 11.1687 119.04 12.158C119.04 12.7087 119.236 13.166 119.628 13.53C120.029 13.894 120.547 14.076 121.182 14.076ZM139.212 7.328V15H137.938V13.866C137.695 14.258 137.355 14.566 136.916 14.79C136.487 15.0047 136.011 15.112 135.488 15.112C134.891 15.112 134.354 14.9907 133.878 14.748C133.402 14.496 133.024 14.1227 132.744 13.628C132.473 13.1333 132.338 12.5313 132.338 11.822V7.328H133.598V11.654C133.598 12.41 133.789 12.9933 134.172 13.404C134.555 13.8053 135.077 14.006 135.74 14.006C136.421 14.006 136.958 13.796 137.35 13.376C137.742 12.956 137.938 12.3447 137.938 11.542V7.328H139.212ZM142.637 8.742C142.889 8.30333 143.262 7.93933 143.757 7.65C144.261 7.35133 144.844 7.202 145.507 7.202C146.188 7.202 146.804 7.36533 147.355 7.692C147.915 8.01867 148.354 8.48067 148.671 9.078C148.988 9.666 149.147 10.352 149.147 11.136C149.147 11.9107 148.988 12.6013 148.671 13.208C148.354 13.8147 147.915 14.286 147.355 14.622C146.804 14.958 146.188 15.126 145.507 15.126C144.854 15.126 144.275 14.9813 143.771 14.692C143.276 14.3933 142.898 14.0247 142.637 13.586V18.64H141.363V7.328H142.637V8.742ZM147.845 11.136C147.845 10.5573 147.728 10.0533 147.495 9.624C147.262 9.19467 146.944 8.868 146.543 8.644C146.151 8.42 145.717 8.308 145.241 8.308C144.774 8.308 144.34 8.42467 143.939 8.658C143.547 8.882 143.23 9.21333 142.987 9.652C142.754 10.0813 142.637 10.5807 142.637 11.15C142.637 11.7287 142.754 12.2373 142.987 12.676C143.23 13.1053 143.547 13.4367 143.939 13.67C144.34 13.894 144.774 14.006 145.241 14.006C145.717 14.006 146.151 13.894 146.543 13.67C146.944 13.4367 147.262 13.1053 147.495 12.676C147.728 12.2373 147.845 11.724 147.845 11.136Z" fill="#1A1A1A"/>
</svg>
