<svg width="150" height="21" viewBox="0 0 150 21" fill="none" xmlns="http://www.w3.org/2000/svg">
<path d="M9.30984 14.9111L12.8564 17.1577C13.3098 17.4446 13.8723 17.0177 13.7378 16.4884L12.7135 12.4581C12.6846 12.3458 12.6879 12.2276 12.7232 12.1172C12.7584 12.0067 12.8241 11.9085 12.9127 11.8337L16.093 9.18712C16.5104 8.83949 16.2955 8.14593 15.7583 8.11105L11.6054 7.84105C11.4936 7.83312 11.3863 7.79359 11.2961 7.72707C11.2059 7.66055 11.1364 7.56977 11.0958 7.4653L9.54665 3.56493C9.50447 3.45408 9.42959 3.35867 9.33195 3.29136C9.2343 3.22404 9.1185 3.18799 8.9999 3.18799C8.8813 3.18799 8.7655 3.22404 8.66786 3.29136C8.57021 3.35867 8.49533 3.45408 8.45315 3.56493L6.90403 7.4653C6.86348 7.56988 6.79404 7.66077 6.70381 7.7274C6.61359 7.79402 6.50628 7.83364 6.3944 7.84162L2.24147 8.11161C1.70484 8.14593 1.48884 8.83949 1.90678 9.18712L5.08715 11.8342C5.17564 11.909 5.24126 12.0072 5.27648 12.1175C5.3117 12.2278 5.3151 12.3459 5.28628 12.4581L4.33678 16.1959C4.17534 16.8309 4.8509 17.3434 5.39428 16.9986L8.69053 14.9111C8.78317 14.8522 8.89068 14.8209 9.00046 14.8209C9.11025 14.8209 9.21776 14.8522 9.3104 14.9111H9.30984Z" fill="#FF8A00"/>
<path d="M27.3098 14.9111L30.8564 17.1577C31.3098 17.4446 31.8723 17.0177 31.7378 16.4884L30.7135 12.4581C30.6846 12.3458 30.6879 12.2276 30.7232 12.1172C30.7584 12.0067 30.8241 11.9085 30.9127 11.8337L34.093 9.18711C34.5104 8.83949 34.2955 8.14593 33.7583 8.11105L29.6054 7.84105C29.4936 7.83312 29.3863 7.79359 29.2961 7.72707C29.2059 7.66055 29.1364 7.56977 29.0958 7.4653L27.5467 3.56493C27.5045 3.45408 27.4296 3.35867 27.3319 3.29136C27.2343 3.22404 27.1185 3.18799 26.9999 3.18799C26.8813 3.18799 26.7655 3.22404 26.6679 3.29136C26.5702 3.35867 26.4953 3.45408 26.4532 3.56493L24.904 7.4653C24.8635 7.56988 24.794 7.66077 24.7038 7.7274C24.6136 7.79402 24.5063 7.83364 24.3944 7.84161L20.2415 8.11161C19.7048 8.14593 19.4888 8.83949 19.9068 9.18711L23.0872 11.8342C23.1756 11.909 23.2413 12.0072 23.2765 12.1175C23.3117 12.2278 23.3151 12.3459 23.2863 12.4581L22.3368 16.1959C22.1753 16.8309 22.8509 17.3434 23.3943 16.9986L26.6905 14.9111C26.7832 14.8522 26.8907 14.8209 27.0005 14.8209C27.1102 14.8209 27.2178 14.8522 27.3104 14.9111H27.3098Z" fill="#FF8A00"/>
<path d="M45.3098 14.9111L48.8564 17.1577C49.3098 17.4446 49.8723 17.0177 49.7378 16.4884L48.7135 12.4581C48.6846 12.3458 48.6879 12.2276 48.7232 12.1172C48.7584 12.0067 48.8241 11.9085 48.9127 11.8337L52.093 9.18711C52.5104 8.83949 52.2955 8.14593 51.7583 8.11105L47.6054 7.84105C47.4936 7.83312 47.3863 7.79359 47.2961 7.72707C47.2059 7.66055 47.1364 7.56977 47.0958 7.4653L45.5467 3.56493C45.5045 3.45408 45.4296 3.35867 45.3319 3.29136C45.2343 3.22404 45.1185 3.18799 44.9999 3.18799C44.8813 3.18799 44.7655 3.22404 44.6679 3.29136C44.5702 3.35867 44.4953 3.45408 44.4532 3.56493L42.904 7.4653C42.8635 7.56988 42.794 7.66077 42.7038 7.7274C42.6136 7.79402 42.5063 7.83364 42.3944 7.84161L38.2415 8.11161C37.7048 8.14593 37.4888 8.83949 37.9068 9.18711L41.0872 11.8342C41.1756 11.909 41.2413 12.0072 41.2765 12.1175C41.3117 12.2278 41.3151 12.3459 41.2863 12.4581L40.3368 16.1959C40.1753 16.8309 40.8509 17.3434 41.3943 16.9986L44.6905 14.9111C44.7832 14.8522 44.8907 14.8209 45.0005 14.8209C45.1102 14.8209 45.2178 14.8522 45.3104 14.9111H45.3098Z" fill="#FF8A00"/>
<path d="M63.3098 14.9111L66.8564 17.1577C67.3098 17.4446 67.8723 17.0177 67.7378 16.4884L66.7135 12.4581C66.6846 12.3458 66.6879 12.2276 66.7232 12.1172C66.7584 12.0067 66.8241 11.9085 66.9127 11.8337L70.093 9.18711C70.5104 8.83949 70.2955 8.14593 69.7583 8.11105L65.6054 7.84105C65.4936 7.83312 65.3863 7.79359 65.2961 7.72707C65.2059 7.66055 65.1364 7.56977 65.0958 7.4653L63.5467 3.56493C63.5045 3.45408 63.4296 3.35867 63.3319 3.29136C63.2343 3.22404 63.1185 3.18799 62.9999 3.18799C62.8813 3.18799 62.7655 3.22404 62.6679 3.29136C62.5702 3.35867 62.4953 3.45408 62.4532 3.56493L60.904 7.4653C60.8635 7.56988 60.794 7.66077 60.7038 7.7274C60.6136 7.79402 60.5063 7.83364 60.3944 7.84161L56.2415 8.11161C55.7048 8.14593 55.4888 8.83949 55.9068 9.18711L59.0872 11.8342C59.1756 11.909 59.2413 12.0072 59.2765 12.1175C59.3117 12.2278 59.3151 12.3459 59.2863 12.4581L58.3368 16.1959C58.1753 16.8309 58.8509 17.3434 59.3943 16.9986L62.6905 14.9111C62.7832 14.8522 62.8907 14.8209 63.0005 14.8209C63.1102 14.8209 63.2178 14.8522 63.3104 14.9111H63.3098Z" fill="#CCCCCC"/>
<path d="M81.3098 14.9111L84.8564 17.1577C85.3098 17.4446 85.8723 17.0177 85.7378 16.4884L84.7135 12.4581C84.6846 12.3458 84.6879 12.2276 84.7232 12.1172C84.7584 12.0067 84.8241 11.9085 84.9127 11.8337L88.093 9.18711C88.5104 8.83949 88.2955 8.14593 87.7583 8.11105L83.6054 7.84105C83.4936 7.83312 83.3863 7.79359 83.2961 7.72707C83.2059 7.66055 83.1364 7.56977 83.0958 7.4653L81.5467 3.56493C81.5045 3.45408 81.4296 3.35867 81.3319 3.29136C81.2343 3.22404 81.1185 3.18799 80.9999 3.18799C80.8813 3.18799 80.7655 3.22404 80.6679 3.29136C80.5702 3.35867 80.4953 3.45408 80.4532 3.56493L78.904 7.4653C78.8635 7.56988 78.794 7.66077 78.7038 7.7274C78.6136 7.79402 78.5063 7.83364 78.3944 7.84161L74.2415 8.11161C73.7048 8.14593 73.4888 8.83949 73.9068 9.18711L77.0872 11.8342C77.1756 11.909 77.2413 12.0072 77.2765 12.1175C77.3117 12.2278 77.3151 12.3459 77.2863 12.4581L76.3368 16.1959C76.1753 16.8309 76.8509 17.3434 77.3943 16.9986L80.6905 14.9111C80.7832 14.8522 80.8907 14.8209 81.0005 14.8209C81.1102 14.8209 81.2178 14.8522 81.3104 14.9111H81.3098Z" fill="#CCCCCC"/>
<path d="M94.5724 7.426C94.6378 6.56733 94.9691 5.89533 95.5664 5.41C96.1638 4.92467 96.9384 4.682 97.8904 4.682C98.5251 4.682 99.0711 4.79867 99.5284 5.032C99.9951 5.256 100.345 5.564 100.578 5.956C100.821 6.348 100.942 6.79133 100.942 7.286C100.942 7.86467 100.774 8.364 100.438 8.784C100.112 9.204 99.6824 9.47467 99.1504 9.596V9.666C99.7571 9.81533 100.238 10.1093 100.592 10.548C100.947 10.9867 101.124 11.5607 101.124 12.27C101.124 12.802 101.003 13.2827 100.76 13.712C100.518 14.132 100.154 14.4633 99.6684 14.706C99.1831 14.9487 98.5998 15.07 97.9184 15.07C96.9291 15.07 96.1171 14.8133 95.4824 14.3C94.8478 13.7773 94.4931 13.04 94.4184 12.088H95.6504C95.7158 12.648 95.9444 13.1053 96.3364 13.46C96.7284 13.8147 97.2511 13.992 97.9044 13.992C98.5578 13.992 99.0524 13.824 99.3884 13.488C99.7338 13.1427 99.9064 12.6993 99.9064 12.158C99.9064 11.458 99.6731 10.954 99.2064 10.646C98.7398 10.338 98.0351 10.184 97.0924 10.184H96.7704V9.12H97.1064C97.9651 9.11067 98.6138 8.97067 99.0524 8.7C99.4911 8.42 99.7104 7.99067 99.7104 7.412C99.7104 6.91733 99.5471 6.52067 99.2204 6.222C98.9031 5.92333 98.4458 5.774 97.8484 5.774C97.2698 5.774 96.8031 5.92333 96.4484 6.222C96.0938 6.52067 95.8838 6.922 95.8184 7.426H94.5724ZM103.461 15.084C103.218 15.084 103.013 15 102.845 14.832C102.677 14.664 102.593 14.4587 102.593 14.216C102.593 13.9733 102.677 13.768 102.845 13.6C103.013 13.432 103.218 13.348 103.461 13.348C103.694 13.348 103.89 13.432 104.049 13.6C104.217 13.768 104.301 13.9733 104.301 14.216C104.301 14.4587 104.217 14.664 104.049 14.832C103.89 15 103.694 15.084 103.461 15.084ZM105.784 9.834C105.784 8.22867 106.045 6.978 106.568 6.082C107.091 5.17667 108.005 4.724 109.312 4.724C110.609 4.724 111.519 5.17667 112.042 6.082C112.565 6.978 112.826 8.22867 112.826 9.834C112.826 11.4673 112.565 12.7367 112.042 13.642C111.519 14.5473 110.609 15 109.312 15C108.005 15 107.091 14.5473 106.568 13.642C106.045 12.7367 105.784 11.4673 105.784 9.834ZM111.566 9.834C111.566 9.022 111.51 8.336 111.398 7.776C111.295 7.20667 111.076 6.74933 110.74 6.404C110.413 6.05867 109.937 5.886 109.312 5.886C108.677 5.886 108.192 6.05867 107.856 6.404C107.529 6.74933 107.31 7.20667 107.198 7.776C107.095 8.336 107.044 9.022 107.044 9.834C107.044 10.674 107.095 11.3787 107.198 11.948C107.31 12.5173 107.529 12.9747 107.856 13.32C108.192 13.6653 108.677 13.838 109.312 13.838C109.937 13.838 110.413 13.6653 110.74 13.32C111.076 12.9747 111.295 12.5173 111.398 11.948C111.51 11.3787 111.566 10.674 111.566 9.834ZM126.007 15L124.733 13.712C124.257 14.2067 123.749 14.5753 123.207 14.818C122.666 15.0513 122.055 15.168 121.373 15.168C120.701 15.168 120.104 15.0467 119.581 14.804C119.068 14.5613 118.667 14.216 118.377 13.768C118.097 13.32 117.957 12.7973 117.957 12.2C117.957 11.5187 118.149 10.9213 118.531 10.408C118.923 9.88533 119.497 9.47467 120.253 9.176C119.955 8.82133 119.74 8.49467 119.609 8.196C119.479 7.89733 119.413 7.57067 119.413 7.216C119.413 6.80533 119.516 6.43667 119.721 6.11C119.936 5.774 120.239 5.51267 120.631 5.326C121.023 5.13933 121.476 5.046 121.989 5.046C122.493 5.046 122.932 5.144 123.305 5.34C123.679 5.536 123.959 5.81133 124.145 6.166C124.332 6.51133 124.416 6.89867 124.397 7.328H123.123C123.133 6.94533 123.025 6.64667 122.801 6.432C122.577 6.208 122.288 6.096 121.933 6.096C121.56 6.096 121.257 6.20333 121.023 6.418C120.799 6.62333 120.687 6.88933 120.687 7.216C120.687 7.496 120.762 7.76667 120.911 8.028C121.07 8.28933 121.331 8.61133 121.695 8.994L124.607 11.92L124.859 11.528L125.811 9.932H127.183L126.035 11.92C125.877 12.2 125.69 12.494 125.475 12.802L127.673 15H126.007ZM121.373 14.076C121.877 14.076 122.33 13.978 122.731 13.782C123.142 13.586 123.529 13.2827 123.893 12.872L121.023 9.988C119.829 10.4453 119.231 11.1687 119.231 12.158C119.231 12.7087 119.427 13.166 119.819 13.53C120.221 13.894 120.739 14.076 121.373 14.076ZM139.403 7.328V15H138.129V13.866C137.887 14.258 137.546 14.566 137.107 14.79C136.678 15.0047 136.202 15.112 135.679 15.112C135.082 15.112 134.545 14.9907 134.069 14.748C133.593 14.496 133.215 14.1227 132.935 13.628C132.665 13.1333 132.529 12.5313 132.529 11.822V7.328H133.789V11.654C133.789 12.41 133.981 12.9933 134.363 13.404C134.746 13.8053 135.269 14.006 135.931 14.006C136.613 14.006 137.149 13.796 137.541 13.376C137.933 12.956 138.129 12.3447 138.129 11.542V7.328H139.403ZM142.829 8.742C143.081 8.30333 143.454 7.93933 143.949 7.65C144.453 7.35133 145.036 7.202 145.699 7.202C146.38 7.202 146.996 7.36533 147.547 7.692C148.107 8.01867 148.545 8.48067 148.863 9.078C149.18 9.666 149.339 10.352 149.339 11.136C149.339 11.9107 149.18 12.6013 148.863 13.208C148.545 13.8147 148.107 14.286 147.547 14.622C146.996 14.958 146.38 15.126 145.699 15.126C145.045 15.126 144.467 14.9813 143.963 14.692C143.468 14.3933 143.09 14.0247 142.829 13.586V18.64H141.555V7.328H142.829V8.742ZM148.037 11.136C148.037 10.5573 147.92 10.0533 147.687 9.624C147.453 9.19467 147.136 8.868 146.735 8.644C146.343 8.42 145.909 8.308 145.433 8.308C144.966 8.308 144.532 8.42467 144.131 8.658C143.739 8.882 143.421 9.21333 143.179 9.652C142.945 10.0813 142.829 10.5807 142.829 11.15C142.829 11.7287 142.945 12.2373 143.179 12.676C143.421 13.1053 143.739 13.4367 144.131 13.67C144.532 13.894 144.966 14.006 145.433 14.006C145.909 14.006 146.343 13.894 146.735 13.67C147.136 13.4367 147.453 13.1053 147.687 12.676C147.92 12.2373 148.037 11.724 148.037 11.136Z" fill="#1A1A1A"/>
</svg>
